<svg width="31" height="31" viewBox="0 0 31 31" fill="none" xmlns="http://www.w3.org/2000/svg">
<g clip-path="url(#clip0_2515_1773)">
<path d="M27.1627 6.63973C26.3012 5.57971 24.9567 4.8607 23.1652 4.50275C22.1097 4.29322 21.1517 4.94373 20.8392 6.08824C20.5412 7.17973 20.9507 8.53324 22.3107 9.00926C22.9787 9.23977 23.5762 9.01424 23.9947 8.83576C24.0912 9.21023 24.2102 9.73729 24.3267 10.2523C24.4397 10.7532 24.5547 11.2638 24.6707 11.7313C23.7312 11.3693 22.3452 11.0093 21.1222 11.9583C20.9272 12.1093 20.7587 12.2513 20.6052 12.3808C19.9447 12.9373 19.8067 13.0538 18.7842 12.7663C18.6153 12.7188 18.4647 12.6438 18.3052 12.5798C19.3242 11.4978 20.0837 9.99381 20.0837 8.61328C20.0837 5.92529 18.0652 3.73828 15.5837 3.73828C13.1022 3.73828 11.0837 5.92529 11.0837 8.61328C11.0837 9.99381 11.8432 11.4978 12.8622 12.5793C12.7027 12.6432 12.5522 12.7182 12.3828 12.7662C11.3618 13.0562 11.2228 12.9382 10.5628 12.3807C10.4088 12.2512 10.2403 12.1092 10.0458 11.9572C8.82132 11.0102 7.4378 11.3692 6.49778 11.7307C6.60976 11.2802 6.7263 10.7632 6.84079 10.2562C6.95628 9.73969 7.07581 9.21117 7.17331 8.83518C7.59132 9.01365 8.19079 9.23818 8.8573 9.00867C10.2173 8.53318 10.6268 7.17967 10.3288 6.08766C10.0173 4.94414 9.06231 4.29463 8.00183 4.50217C6.21032 4.86018 4.86583 5.57965 4.00433 6.6402C3.25081 7.5682 0.312334 13.7542 0.604307 15.0857C0.843779 16.1777 1.92981 16.7847 4.55634 18.2512L5.03335 18.5177C5.69634 18.8882 6.42185 18.9332 7.06286 18.9727C8.08837 19.0357 8.46835 19.1102 8.70185 19.7007C9.72483 22.2908 10.4679 26.0927 10.4748 26.1308C10.5439 26.4892 10.8579 26.7383 11.2104 26.7383C11.2574 26.7383 11.3053 26.7337 11.3539 26.7243C11.7604 26.6457 12.0263 26.2528 11.9474 25.8452C11.9164 25.6847 11.1719 21.8702 10.0964 19.1493C9.4914 17.6193 8.14087 17.5362 7.15485 17.4758C6.62733 17.4428 6.12888 17.4122 5.76483 17.2083L5.28735 16.9418C3.47388 15.9298 2.16437 15.1978 2.07583 14.8083C2.04683 13.9823 4.35935 8.58228 5.16882 7.58631C5.8038 6.80432 6.85632 6.26232 8.29632 5.97328C8.68433 5.8933 8.85431 6.38479 8.88132 6.48381C8.90534 6.57082 9.09132 7.33781 8.36282 7.59281C8.20632 7.64783 7.93134 7.52982 7.68835 7.4243C7.34036 7.2733 6.91034 7.08381 6.45636 7.28232C6.27085 7.3623 6.02036 7.53785 5.88237 7.9193C5.74339 8.30027 5.57388 9.05379 5.37788 9.92777C5.19636 10.7328 4.9914 11.6453 4.83536 12.1148C4.76786 12.3178 4.56284 12.9358 5.01483 13.3543C5.47685 13.7818 6.03231 13.5493 6.61931 13.3008C7.58229 12.8973 8.43278 12.6058 9.12782 13.1433C9.30431 13.2803 9.45583 13.4093 9.59534 13.5262C10.4679 14.2632 11.0878 14.6887 12.7903 14.2103C13.3033 14.0662 13.7578 13.8553 14.1788 13.6293C14.6458 13.8858 15.1238 14.0508 15.5849 14.0508C16.0459 14.0508 16.5239 13.8858 16.9909 13.6293C17.4119 13.8553 17.8664 14.0662 18.3789 14.2103C20.0839 14.6887 20.7029 14.2628 21.5744 13.5262C21.7134 13.4092 21.8653 13.2803 22.0419 13.1437C22.7364 12.6047 23.5874 12.8968 24.5499 13.3003C25.1364 13.5487 25.6924 13.7812 26.1543 13.3537C26.6069 12.9357 26.4018 12.3182 26.3343 12.1153C26.1784 11.6443 25.9724 10.7297 25.7908 9.92227C25.5943 9.05127 25.4253 8.29928 25.2878 7.91924C25.1488 7.53773 24.8983 7.36271 24.7128 7.28221C24.2593 7.08721 23.8278 7.27318 23.4803 7.42424C23.2388 7.52871 22.9653 7.64824 22.8073 7.59275C22.0773 7.33775 22.2638 6.57023 22.2873 6.48375C22.3143 6.38473 22.4658 5.89623 22.8733 5.97322C24.3123 6.26121 25.3648 6.80373 26.0008 7.5852C26.8092 8.58223 29.1223 13.9822 29.1003 14.7652C29.0053 15.1982 27.6942 15.9297 25.8798 16.9427L25.4038 17.2087C25.0398 17.4122 24.5418 17.4432 24.0143 17.4762C23.0283 17.5372 21.6778 17.6197 21.0727 19.1497C19.9967 21.8707 19.2518 25.6852 19.2212 25.8457C19.1423 26.2527 19.4082 26.6462 19.8147 26.7247C19.8613 26.7337 19.9097 26.7382 19.9567 26.7382C20.3092 26.7382 20.6232 26.4892 20.6922 26.1312C20.6997 26.0932 21.4422 22.2912 22.4662 19.7022C22.6997 19.1112 23.0802 19.0362 24.1052 18.9732C24.7452 18.9337 25.4717 18.8892 26.1347 18.5182L26.6092 18.2532C29.2372 16.7862 30.3242 16.1792 30.5637 15.0862C30.8547 13.7538 27.9167 7.56773 27.1627 6.63973ZM15.5837 12.5508C14.5837 12.5508 12.5837 10.4773 12.5837 8.61328C12.5837 6.7493 13.9267 5.23828 15.5837 5.23828C17.2407 5.23828 18.5837 6.7493 18.5837 8.61328C18.5837 10.4773 16.5837 12.5508 15.5837 12.5508Z" fill="#591BD2"/>
</g>
<defs>
<clipPath id="clip0_2515_1773">
<rect width="30" height="30" fill="white" transform="translate(0.583984 0.238281)"/>
</clipPath>
</defs>
</svg>
