<svg width="28" height="28" viewBox="0 0 28 28" fill="none" xmlns="http://www.w3.org/2000/svg">
<g clip-path="url(#clip0_2515_1777)">
<path d="M26.4992 12.3996C26.3475 11.9677 26.1142 11.5689 25.8119 11.2249C25.8202 11.1176 25.8247 11.0076 25.8247 10.8952C25.8247 10.8719 25.8247 10.8514 25.8247 10.8333C25.8151 10.1947 25.6749 9.56491 25.4128 8.98253C25.1508 8.40014 24.7724 7.87751 24.3009 7.44675L27.0974 4.60513L27.1064 4.59552C27.4264 4.25267 27.5974 3.79698 27.5821 3.32828C27.5667 2.85958 27.3662 2.41606 27.0245 2.09488L26.509 2.64354L27.0234 2.09337C26.6967 1.78752 26.2659 1.6173 25.8183 1.61719C25.5282 1.61719 25.1735 1.61287 24.9746 1.8309L21.8988 5.17958C21.5055 4.77531 21.0352 4.45405 20.5155 4.2348C19.9959 4.01556 19.4375 3.9028 18.8736 3.90319C18.8547 3.90319 18.8299 3.90319 18.7967 3.90319C17.9553 3.91789 17.1375 4.18456 16.4492 4.66876C15.6967 4.25997 14.8538 4.04634 13.9975 4.04741C13.9734 4.04741 13.9457 4.04741 13.9133 4.04741C12.6617 4.06776 11.4604 4.54355 10.5342 5.38572C9.60807 6.22789 9.02059 7.37871 8.88173 8.62279C8.24826 8.26514 7.53294 8.07767 6.80548 8.07865C6.78816 8.07865 6.765 8.07865 6.7362 8.07865C5.62596 8.09648 4.56719 8.54986 3.78813 9.34107C3.00907 10.1323 2.57212 11.1979 2.57147 12.3083C2.57147 12.3253 2.57147 12.3484 2.57147 12.3782V12.3812H1.94316C1.50445 12.3812 1.12298 12.4 0.777662 12.8237C0.591446 13.0524 0.582031 13.6598 0.582031 13.6598C0.582031 13.6753 0.582032 13.6892 0.582974 13.7018C0.582974 13.7116 0.582031 13.7224 0.582031 13.7335C0.582312 13.7748 0.585514 13.8161 0.591627 13.857C0.708177 17.6497 2.39279 20.5035 4.88063 22.3148C5.89023 23.0435 7.00086 23.6207 8.17734 24.0283C8.25174 24.5374 8.50683 25.0029 8.896 25.3395C9.28518 25.6762 9.78249 25.8617 10.2971 25.862H17.7559C18.2705 25.8617 18.7679 25.6763 19.1571 25.3396C19.5463 25.0028 19.8013 24.5373 19.8756 24.0281C21.052 23.6205 22.1625 23.0433 23.172 22.3147C25.6596 20.5031 27.344 17.6491 27.4608 13.8583C27.4608 13.8583 27.4871 13.1488 27.3066 12.8429C27.1718 12.5397 26.8387 12.4349 26.4992 12.3996ZM24.3183 10.8532C24.3183 10.8664 24.3183 10.8822 24.3183 10.8952C24.317 11.0589 24.3035 11.2222 24.2778 11.3838L24.2177 11.7836L24.5173 12.0551C24.6258 12.1532 24.7236 12.2625 24.8091 12.3812H7.35227C7.53983 12.1149 7.78773 11.8968 8.0757 11.7446C8.36366 11.5925 8.68354 11.5106 9.0092 11.5057H9.01861H9.02407H9.0429C9.43886 11.5075 9.82623 11.6212 10.1604 11.8337L10.7379 12.2048L11.1608 11.6642C11.1864 11.6314 11.2154 11.6017 11.2427 11.57C11.4503 11.3299 11.7064 11.1363 11.9941 11.0019C12.2817 10.8676 12.5946 10.7956 12.912 10.7905H12.9214C12.9229 10.7905 12.9331 10.7905 12.9495 10.7905C13.4364 10.7903 13.9103 10.948 14.3001 11.2398L14.8312 11.6352L15.2916 11.159C15.4986 10.9437 15.7462 10.7716 16.0201 10.6526C16.2941 10.5336 16.5889 10.4701 16.8875 10.4657H16.9024H16.9159C17.032 10.4667 17.1479 10.4763 17.2626 10.4946L17.9027 10.5904L18.0931 9.97075C18.2895 9.33251 18.6816 8.77218 19.214 8.36906C19.7463 7.96595 20.392 7.74044 21.0596 7.72447L21.223 7.7288C21.3397 7.73256 21.4561 7.74249 21.5717 7.75856C21.7716 7.78633 21.9683 7.83304 22.1594 7.89807C22.1752 7.90353 22.1916 7.90749 22.2074 7.91314C22.2913 7.94289 22.3731 7.97753 22.4537 8.01425C22.4725 8.02272 22.4913 8.03007 22.5086 8.03892C22.5892 8.07758 22.668 8.11976 22.7451 8.16545C22.7988 8.1967 22.8541 8.2257 22.9057 8.25959C22.9718 8.30384 23.0349 8.35166 23.0972 8.40061C23.471 8.6923 23.7747 9.064 23.9859 9.48842C24.1972 9.91284 24.3108 10.3792 24.3183 10.8532ZM25.5997 3.22987L25.6329 3.19824C25.6825 3.15011 25.749 3.12341 25.8181 3.12387C25.883 3.12333 25.9455 3.14781 25.9927 3.19221C26.0431 3.23955 26.0731 3.3047 26.0763 3.3738C26.0794 3.4429 26.0554 3.5105 26.0095 3.5622L23.0127 6.60793C22.9362 6.57441 22.8587 6.54303 22.7801 6.51379C22.7681 6.48441 22.7562 6.45504 22.7425 6.42586L25.5997 3.22987ZM13.9376 5.55391H13.9459H13.9973C14.741 5.55278 15.4669 5.78113 16.076 6.20782L16.5744 6.55616L17.0199 6.14192C17.5111 5.68183 18.156 5.42112 18.8289 5.41061H18.8421C18.844 5.41061 18.8542 5.41061 18.8734 5.41061C19.236 5.41048 19.5949 5.48297 19.929 5.6238C20.2631 5.76463 20.5657 5.97096 20.8188 6.23061C19.9756 6.28737 19.1635 6.57108 18.4683 7.0517C17.7732 7.53232 17.221 8.19196 16.8702 8.96077C16.864 8.96077 16.8572 8.96077 16.8497 8.96077C16.0644 8.97523 15.3034 9.2351 14.6733 9.70393C14.1406 9.42845 13.5497 9.28473 12.9501 9.28482C12.9333 9.28482 12.9101 9.28482 12.8794 9.28482C12.0043 9.30082 11.1622 9.62194 10.4985 10.1927C10.4103 9.88649 10.3628 9.56995 10.3573 9.25129C10.3573 9.23077 10.3573 9.21364 10.3573 9.1918C10.3578 8.23705 10.7333 7.32069 11.403 6.64021C12.0728 5.95973 12.983 5.56961 13.9376 5.55391ZM4.07815 12.3545V12.3488V12.3415C4.07815 12.3383 4.07815 12.3275 4.07815 12.3083C4.07889 11.5932 4.36054 10.907 4.8624 10.3975C5.36427 9.88801 6.04619 9.59607 6.76124 9.58456H6.7682H6.80586C7.35883 9.58374 7.89881 9.75221 8.35321 10.0673C7.74421 10.1877 7.17695 10.4644 6.70707 10.8701C6.2372 11.2758 5.88085 11.7966 5.67294 12.3816H4.07927L4.07815 12.3545ZM22.2817 21.1002C21.306 21.803 20.2249 22.3465 19.0788 22.7104L18.9487 22.7509C18.9231 22.759 18.8969 22.7667 18.8711 22.7745C18.7045 22.8264 18.536 22.8754 18.3654 22.9213L18.2861 22.9418C18.1264 22.9839 17.9654 23.0234 17.803 23.0603L17.7002 23.0834C17.5446 23.1173 17.3881 23.1491 17.2306 23.1787C17.1903 23.1864 17.1498 23.1941 17.1091 23.2011C16.9566 23.2286 16.8033 23.2533 16.6491 23.2764C16.6036 23.283 16.5584 23.2905 16.513 23.2968C16.3624 23.3181 16.2107 23.3369 16.0579 23.3532C16.0091 23.3589 15.9608 23.3651 15.912 23.3702C15.7614 23.386 15.6079 23.399 15.4552 23.4107C15.4057 23.4144 15.3565 23.4192 15.307 23.4225C15.1485 23.4335 14.9892 23.4414 14.8295 23.4474C14.786 23.4493 14.7427 23.4523 14.699 23.4538C14.4965 23.4607 14.2932 23.4642 14.0892 23.4643C14.08 23.4643 14.0608 23.463 14.0272 23.463H14.0139C13.9884 23.463 13.9696 23.4643 13.9617 23.4643C13.7574 23.4643 13.5538 23.4608 13.3511 23.4538C13.3108 23.4523 13.2709 23.4496 13.2306 23.4478C13.0675 23.4412 12.9045 23.4335 12.7424 23.4225C12.6964 23.4192 12.6511 23.4148 12.6053 23.4111C12.4485 23.3994 12.2922 23.386 12.1368 23.3698C12.0915 23.3651 12.0467 23.3593 12.0017 23.3544C11.8457 23.3369 11.6904 23.3175 11.5356 23.296C11.4936 23.2902 11.4517 23.2834 11.4095 23.2772C11.2517 23.2533 11.0945 23.2279 10.9388 23.2L10.8292 23.1798C10.6665 23.1491 10.505 23.1166 10.3445 23.0808C10.3161 23.0746 10.288 23.0684 10.2589 23.062C10.0883 23.0233 9.91881 22.9818 9.75048 22.9375C9.73335 22.9328 9.71584 22.9285 9.69871 22.924C9.51431 22.8744 9.33192 22.8215 9.15154 22.7654L8.96213 22.7063C7.82063 22.3425 6.74387 21.8003 5.77179 21.1C3.64565 19.5282 2.24216 17.2224 2.10113 13.8873H25.9522C25.8112 17.2226 24.4079 19.5284 22.2817 21.1002Z" fill="#591BD2"/>
</g>
<defs>
<clipPath id="clip0_2515_1777">
<rect width="27" height="27" fill="white" transform="translate(0.583984 0.238281)"/>
</clipPath>
</defs>
</svg>
