<svg width="25" height="25" viewBox="0 0 25 25" fill="none" xmlns="http://www.w3.org/2000/svg">
<g clip-path="url(#clip0_2515_1779)">
<path d="M12.5837 1.554C6.6827 1.554 1.8997 6.337 1.8997 12.238C1.8997 18.139 6.6827 22.922 12.5837 22.922C18.4847 22.922 23.2677 18.139 23.2677 12.238C23.2557 6.342 18.4797 1.566 12.5847 1.554H12.5837ZM12.5837 23.851C6.1697 23.851 0.970703 18.652 0.970703 12.238C0.970703 5.824 6.1697 0.625 12.5837 0.625C18.9977 0.625 24.1967 5.824 24.1967 12.238V12.253C24.1967 18.658 19.0047 23.85 12.5997 23.85C12.5947 23.85 12.5887 23.85 12.5837 23.85H12.5847L12.5837 23.851Z" fill="#591BD2"/>
<path d="M12.584 24.2383C5.96998 24.2043 0.617984 18.8523 0.583984 12.2413V12.2383C0.583984 5.61128 5.95698 0.238281 12.584 0.238281C19.211 0.238281 24.584 5.61128 24.584 12.2383C24.55 18.8523 19.198 24.2043 12.587 24.2383H12.584ZM12.584 1.01228C6.38398 1.01228 1.35798 6.03828 1.35798 12.2383C1.35798 18.4383 6.38398 23.4643 12.584 23.4643C18.784 23.4643 23.81 18.4383 23.81 12.2383C23.806 6.04028 18.782 1.01728 12.585 1.01228H12.584ZM12.584 23.3093C6.46998 23.3093 1.51298 18.3523 1.51298 12.2383C1.51298 6.12428 6.46998 1.16728 12.584 1.16728C18.698 1.16728 23.655 6.12428 23.655 12.2383C23.655 18.3523 18.698 23.3093 12.584 23.3093ZM12.584 1.94128C6.89698 1.94128 2.28698 6.55128 2.28698 12.2383C2.28698 17.9253 6.89698 22.5353 12.584 22.5353C18.271 22.5353 22.881 17.9253 22.881 12.2383C22.881 12.2373 22.881 12.2353 22.881 12.2333C22.881 6.54928 18.273 1.94128 12.589 1.94128C12.587 1.94128 12.586 1.94128 12.584 1.94128Z" fill="#591BD2"/>
<path d="M10.262 10.1486C10.262 11.3026 9.32603 12.2386 8.17203 12.2386C7.01803 12.2386 6.08203 11.3026 6.08203 10.1486C6.08203 8.99459 7.01803 8.05859 8.17203 8.05859H8.18103C9.33103 8.05859 10.263 8.99059 10.263 10.1406V10.1496L10.262 10.1486Z" fill="#591BD2"/>
<path d="M19.1644 10.1486C19.1644 11.3026 18.2284 12.2386 17.0744 12.2386C15.9204 12.2386 14.9844 11.3026 14.9844 10.1486C14.9844 8.99459 15.9204 8.05859 17.0744 8.05859H17.0834C18.2334 8.05859 19.1654 8.99059 19.1654 10.1406V10.1496L19.1644 10.1486Z" fill="#591BD2"/>
<path d="M15.295 17.1156C15.295 19.1286 14.134 20.7546 12.585 20.7546C11.114 20.7546 9.875 19.1286 9.875 17.1156C9.875 15.1026 11.036 13.4766 12.585 13.4766C14.056 13.4766 15.295 15.1026 15.295 17.1156Z" fill="#591BD2"/>
<path d="M10.5708 8.05812C10.5598 8.05912 10.5478 8.06013 10.5358 8.06013C10.4588 8.06013 10.3898 8.03013 10.3388 7.98013L7.78383 6.43212C7.68983 6.34512 7.61183 6.24312 7.55483 6.12812L7.55183 6.12212C7.54983 6.10712 7.54883 6.09012 7.54883 6.07312C7.54883 5.97612 7.57883 5.88512 7.62983 5.81112L7.62883 5.81312C7.71583 5.71912 7.81783 5.64112 7.93283 5.58412L7.93883 5.58112C7.95383 5.57912 7.97083 5.57812 7.98783 5.57812C8.08483 5.57812 8.17583 5.60812 8.24983 5.65912L8.24783 5.65812L10.8028 7.20613C10.8968 7.29313 10.9748 7.39512 11.0318 7.51012L11.0348 7.51612C11.0368 7.53112 11.0378 7.54813 11.0378 7.56513C11.0378 7.66213 11.0078 7.75312 10.9568 7.82712L10.9578 7.82512C10.8858 7.96412 10.7428 8.05712 10.5788 8.05712C10.5758 8.05712 10.5738 8.05812 10.5708 8.05812Z" fill="#591BD2"/>
<path d="M10.5717 8.44406C10.3977 8.42706 10.2397 8.37106 10.1027 8.28606L10.1077 8.28906L7.55272 6.74106C7.36772 6.61206 7.23072 6.42406 7.16772 6.20606L7.16572 6.19906C7.14772 6.13406 7.13672 6.06006 7.13672 5.98406C7.13672 5.83506 7.17572 5.69606 7.24472 5.57606L7.24272 5.58006C7.37172 5.39506 7.55972 5.25806 7.77772 5.19506L7.78472 5.19306C7.84972 5.17506 7.92372 5.16406 7.99972 5.16406C8.14872 5.16406 8.28772 5.20306 8.40772 5.27206L8.40372 5.27006L10.9587 6.81806C11.1437 6.94706 11.2807 7.13506 11.3437 7.35306L11.3457 7.36006C11.3637 7.42506 11.3747 7.49906 11.3747 7.57506C11.3747 7.72406 11.3357 7.86306 11.2667 7.98306L11.2687 7.97906C11.1547 8.25406 10.8897 8.44406 10.5787 8.44406C10.5757 8.44406 10.5737 8.44406 10.5707 8.44406H10.5717ZM8.09472 6.04406H8.01772V6.12106L10.5727 7.66906L10.6497 7.59206L8.09472 6.04406Z" fill="#591BD2"/>
<path d="M14.5959 8.05812C14.5939 8.05812 14.5909 8.05812 14.5879 8.05812C14.4229 8.05812 14.2809 7.96513 14.2099 7.82812L14.2089 7.82612C14.1589 7.75312 14.1289 7.66313 14.1289 7.56512C14.1289 7.54813 14.1299 7.53112 14.1319 7.51412V7.51612C14.1549 7.37812 14.2419 7.26512 14.3619 7.20712L14.3639 7.20612L16.9189 5.65812C16.9919 5.60812 17.0819 5.57812 17.1799 5.57812C17.1969 5.57812 17.2139 5.57912 17.2309 5.58112H17.2289C17.3669 5.60412 17.4799 5.69112 17.5379 5.81112L17.5389 5.81312C17.5889 5.88612 17.6189 5.97612 17.6189 6.07412C17.6189 6.09112 17.6179 6.10812 17.6159 6.12512V6.12312C17.5929 6.26112 17.5059 6.37412 17.3859 6.43212L17.3839 6.43312L14.8289 7.98112C14.7779 8.03012 14.7079 8.06112 14.6319 8.06112C14.6199 8.06112 14.6069 8.06012 14.5959 8.05912H14.5969L14.5959 8.05812Z" fill="#591BD2"/>
<path d="M14.5962 8.44419H14.5922C14.3012 8.44419 14.0452 8.29119 13.9022 8.06019L13.9002 8.05719C13.8002 7.91119 13.7402 7.73019 13.7402 7.53619C13.7402 7.50119 13.7422 7.46719 13.7462 7.43419V7.43819C13.8032 7.20919 13.9422 7.02019 14.1302 6.89819L14.1332 6.89619L16.6882 5.34819C16.8042 5.28119 16.9442 5.24219 17.0922 5.24219C17.1692 5.24219 17.2432 5.25219 17.3132 5.27219L17.3072 5.27119C17.5362 5.32819 17.7252 5.46719 17.8472 5.65519L17.8492 5.65819C17.9162 5.77419 17.9552 5.91419 17.9552 6.06219C17.9552 6.13919 17.9452 6.21319 17.9252 6.28319L17.9262 6.27719C17.8692 6.50619 17.7302 6.69519 17.5422 6.81719L17.5392 6.81919L14.9842 8.36719C14.8982 8.42019 14.7952 8.45119 14.6842 8.45119C14.6532 8.45119 14.6232 8.44919 14.5942 8.44419H14.5972H14.5962ZM14.5182 7.67019L17.1502 6.19919L17.5372 5.88919L17.2272 6.12119L16.9172 5.73419L17.1492 6.04419L14.5942 7.59219L14.2072 7.90219L14.5182 7.67019Z" fill="#591BD2"/>
</g>
<defs>
<clipPath id="clip0_2515_1779">
<rect width="24" height="24" fill="white" transform="translate(0.583984 0.238281)"/>
</clipPath>
</defs>
</svg>
