<svg width="32" height="33" viewBox="0 0 32 33" fill="none" xmlns="http://www.w3.org/2000/svg">
<path d="M16.084 1.90625C16.619 1.90625 17.0527 2.35397 17.0527 2.90625V5.57292C17.0527 6.1252 16.619 6.57292 16.084 6.57292C15.549 6.57292 15.1152 6.1252 15.1152 5.57292V2.90625C15.1152 2.35397 15.549 1.90625 16.084 1.90625Z" fill="#591BD2"/>
<path fill-rule="evenodd" clip-rule="evenodd" d="M16.0846 12.1041C14.8299 11.1394 13.42 11.0052 12.2212 11.5802C10.8577 12.2343 9.94922 13.7287 9.94922 15.4121C9.94922 17.037 10.6004 18.2719 11.4168 19.2366C12.0593 19.9958 12.8516 20.6353 13.5036 21.1615C13.6464 21.2769 13.7828 21.387 13.9091 21.4914C14.1683 21.7058 14.4836 21.9663 14.8125 22.1679C15.1404 22.3691 15.5764 22.5726 16.0846 22.5726C16.5929 22.5726 17.0288 22.3691 17.3568 22.1679C17.6857 21.9663 18.001 21.7058 18.2602 21.4914C18.3866 21.3869 18.5228 21.277 18.6656 21.1615C19.3177 20.6353 20.11 19.9958 20.7525 19.2366C21.5689 18.2719 22.2201 17.037 22.2201 15.4121C22.2201 13.7287 21.3116 12.2343 19.948 11.5802C18.7492 11.0052 17.3394 11.1394 16.0846 12.1041ZM13.0377 13.394C12.3991 13.7003 11.8867 14.4589 11.8867 15.4121C11.8867 16.4237 12.2739 17.2094 12.8759 17.9207C13.3855 18.5229 13.9965 19.0177 14.6403 19.5389C14.7987 19.6671 14.9593 19.7973 15.1207 19.9307C15.3979 20.1601 15.609 20.3302 15.8019 20.4485C15.9955 20.5671 16.0762 20.5726 16.0846 20.5726C16.093 20.5726 16.1738 20.5671 16.3674 20.4485C16.5602 20.3302 16.7714 20.1601 17.0486 19.9307C17.2101 19.7971 17.3705 19.6673 17.529 19.5389C18.1727 19.0177 18.7837 18.5229 19.2934 17.9207C19.8953 17.2094 20.2826 16.4237 20.2826 15.4121C20.2826 14.4589 19.7701 13.7003 19.1315 13.394C18.5586 13.1192 17.7043 13.1292 16.7881 14.1281C16.6052 14.3275 16.3507 14.4406 16.0846 14.4406C15.8186 14.4406 15.5641 14.3275 15.3812 14.1281C14.465 13.1292 13.6107 13.1192 13.0377 13.394Z" fill="#591BD2"/>
<path d="M17.0527 26.9062C17.0527 26.354 16.619 25.9062 16.084 25.9062C15.549 25.9062 15.1152 26.354 15.1152 26.9062V29.5729C15.1152 30.1252 15.549 30.5729 16.084 30.5729C16.619 30.5729 17.0527 30.1252 17.0527 29.5729V26.9062Z" fill="#591BD2"/>
<path d="M2.19922 16.2383C2.19922 15.686 2.63295 15.2383 3.16797 15.2383H5.7513C6.28632 15.2383 6.72005 15.686 6.72005 16.2383C6.72005 16.7905 6.28632 17.2383 5.7513 17.2383H3.16797C2.63295 17.2383 2.19922 16.7905 2.19922 16.2383Z" fill="#591BD2"/>
<path d="M26.418 15.2383C25.883 15.2383 25.4492 15.686 25.4492 16.2383C25.4492 16.7905 25.883 17.2383 26.418 17.2383H29.0013C29.5363 17.2383 29.9701 16.7905 29.9701 16.2383C29.9701 15.686 29.5363 15.2383 29.0013 15.2383H26.418Z" fill="#591BD2"/>
<path d="M7.64897 24.9457C7.27066 24.5552 7.27066 23.9221 7.64897 23.5316L8.09208 23.0742C8.47039 22.6836 9.08377 22.6836 9.4621 23.0742C9.84041 23.4647 9.84041 24.0979 9.4621 24.4884L9.01899 24.9457C8.64068 25.3363 8.02729 25.3363 7.64897 24.9457Z" fill="#591BD2"/>
<path d="M22.7056 7.98885C22.3273 8.37937 22.3273 9.01254 22.7056 9.40306C23.084 9.79359 23.6974 9.79359 24.0757 9.40306L24.519 8.94539C24.8973 8.55487 24.8973 7.92169 24.519 7.53117C24.1407 7.14065 23.5274 7.14065 23.1491 7.53117L22.7056 7.98885Z" fill="#591BD2"/>
<path d="M24.5187 24.9457C24.8971 24.5552 24.8971 23.9221 24.5187 23.5316L24.0757 23.0742C23.6974 22.6836 23.084 22.6836 22.7056 23.0742C22.3273 23.4647 22.3273 24.0979 22.7056 24.4884L23.1488 24.9457C23.5271 25.3363 24.1404 25.3363 24.5187 24.9457Z" fill="#591BD2"/>
<path d="M9.46237 7.98885C9.84068 8.37937 9.84068 9.01254 9.46237 9.40306C9.08405 9.79359 8.47067 9.79359 8.09235 9.40306L7.64897 8.94539C7.27066 8.55487 7.27066 7.92169 7.64897 7.53117C8.02729 7.14065 8.64068 7.14065 9.01899 7.53117L9.46237 7.98885Z" fill="#591BD2"/>
</svg>
