<svg width="44" height="60" viewBox="0 0 44 60" fill="none" xmlns="http://www.w3.org/2000/svg">
<path d="M43.1684 9.33755L34.0195 0.188874C33.778 -0.0525413 33.3865 -0.0525413 33.1451 0.188874L32.6006 0.733343C32.3592 0.974758 32.3592 1.36627 32.6006 1.60769L33.1799 2.18697L14.9208 20.4461L14.3415 19.8668C14.1001 19.6254 13.7086 19.6254 13.4672 19.8668L12.9227 20.4113C12.6813 20.6527 12.6813 21.0442 12.9227 21.2856L22.0717 30.4346C22.3131 30.676 22.7046 30.676 22.946 30.4346L23.4905 29.8901C23.7319 29.6487 23.7319 29.2572 23.4905 29.0158L22.9477 28.473L26.989 24.4317C28.3619 25.9838 30.3663 26.9649 32.5966 26.9649C34.068 26.9649 35.4406 26.5365 36.5994 25.8006C37.1872 27.2853 37.5143 28.9005 37.5143 30.5921C37.5143 37.8114 31.6407 43.685 24.4216 43.685H24.3928C19.5305 43.685 15.0695 40.9438 12.8226 36.7205H19.074C19.9143 36.7205 20.5958 36.0391 20.5958 35.1987V34.0187C20.5958 33.178 19.9143 32.4969 19.074 32.4969H2.45054C1.61015 32.4969 0.928711 33.1783 0.928711 34.0187V35.1987C0.928711 36.0393 1.61015 36.7205 2.45054 36.7205H9.66789C11.6914 41.5739 16.0129 45.0881 21.0595 46.1794V51.1121C14.6868 52.1528 9.98778 55.7407 9.98778 60.0082H39.7518C39.7518 55.7407 35.0527 52.1531 28.6801 51.1121V45.9979H28.536C35.3407 44.1787 40.3679 37.963 40.3679 30.5924C40.3679 28.1183 39.7977 25.7766 38.7861 23.6861C39.6048 22.4858 40.0848 21.0365 40.0848 19.477C40.0848 17.2469 39.1034 15.2425 37.5514 13.8694L41.2068 10.2142L41.7496 10.7569C41.991 10.9983 42.3825 10.9983 42.6239 10.7569L43.1684 10.2125C43.4098 9.97048 43.4098 9.57896 43.1684 9.33755ZM32.5964 24.111C30.041 24.111 27.9618 22.0318 27.9618 19.4764C27.9618 16.921 30.041 14.8422 32.5964 14.8422C35.1518 14.8422 37.2309 16.921 37.2309 19.4764C37.2309 22.0318 35.1521 24.111 32.5964 24.111Z" fill="#16A762"/>
</svg>
