<svg width="50" height="61" viewBox="0 0 50 61" fill="none" xmlns="http://www.w3.org/2000/svg">
<path d="M13.5674 20.2798C14.2277 27.1163 18.6494 31.6314 24.9194 31.6314C31.1892 31.6314 35.6104 27.1162 36.271 20.2798L37.2071 12.8936C37.7878 5.63688 31.8662 0.390625 24.9194 0.390625C17.9724 0.390625 12.0508 5.63688 12.6311 12.8936L13.5674 20.2798Z" fill="#16A762"/>
<path d="M49.202 49.9112L48.7539 47.0577C48.3786 44.665 46.8748 42.5996 44.7139 41.5075L35.2835 36.7388C34.9883 36.5895 34.7479 36.3645 34.5465 36.1133C31.8163 38.9998 28.4996 40.6977 24.9195 40.6977C21.3396 40.6977 18.0223 38.9998 15.2923 36.1133C15.0909 36.3645 14.8505 36.5895 14.5553 36.7388L5.12502 41.5075C2.96384 42.5996 1.46033 44.665 1.08498 47.0577L0.636618 49.9112C0.476891 50.9298 0.687711 52.4246 1.60013 53.1719C2.82006 54.1695 7.3265 60.3914 24.9195 60.3914C42.5123 60.3914 47.0185 54.1695 48.2384 53.1719C49.1512 52.4246 49.3618 50.9298 49.202 49.9112Z" fill="#16A762"/>
</svg>
