<svg width="46" height="46" viewBox="0 0 46 46" fill="none" xmlns="http://www.w3.org/2000/svg">
<path fill-rule="evenodd" clip-rule="evenodd" d="M37.7217 7.70312V37.7031H7.72168V7.70312H37.7217ZM20.3486 15.2031H17.4269L11.88 30.2031H14.5158L15.5631 27.2707H22.2031L23.2279 30.2031H26.0225L20.3486 15.2031ZM30.7014 15.2031H28.0762V30.2031H30.7014V15.2031ZM18.8656 17.7198L21.4806 25.2031H16.2922L18.8656 17.7198ZM40.2217 30.2031H45.2217V35.2031H40.2217V30.2031ZM10.2217 40.2031H15.2217V45.2031H10.2217V40.2031ZM20.2217 40.2031H25.2217V45.2031H20.2217V40.2031ZM10.2217 0.203125H15.2217V5.20312H10.2217V0.203125ZM30.2217 40.2031H35.2217V45.2031H30.2217V40.2031ZM20.2217 0.203125H25.2217V5.20312H20.2217V0.203125ZM30.2217 0.203125H35.2217V5.20312H30.2217V0.203125ZM40.2217 20.2031H45.2217V25.2031H40.2217V20.2031ZM0.22168 30.2031H5.22168V35.2031H0.22168V30.2031ZM40.2217 10.2031H45.2217V15.2031H40.2217V10.2031ZM0.22168 20.2031H5.22168V25.2031H0.22168V20.2031ZM0.22168 10.2031H5.22168V15.2031H0.22168V10.2031Z" fill="#16A762"/>
</svg>
