<svg width="61" height="61" viewBox="0 0 61 61" fill="none" xmlns="http://www.w3.org/2000/svg">
<g clip-path="url(#clip0_1882_1919)">
<path d="M37.6683 47.5208H9.71145V7.4238H37.6607V10.4234H41.4173V6.60496C41.4198 3.00805 38.4665 0.0625 34.8721 0.0625H12.505C8.90551 0.0625 5.95996 3.00805 5.95996 6.60496V53.5174C5.95996 57.1196 8.90551 60.0625 12.505 60.0625H34.8721C38.4665 60.0625 41.4198 57.1196 41.4198 53.5174V47.4512H37.6683V47.5208ZM23.6847 56.7874C22.0265 56.7874 20.6877 55.446 20.6877 53.7904C20.6877 52.1297 22.0266 50.7908 23.6847 50.7908C25.3454 50.7908 26.6869 52.1322 26.6869 53.7904C26.6869 55.446 25.3455 56.7874 23.6847 56.7874Z" fill="#16A762"/>
<path d="M21.3001 11.4492H12.9141V16.5628H21.3001V11.4492Z" fill="#16A762"/>
<path d="M21.3001 24.5391H12.9141V29.6526H21.3001V24.5391Z" fill="#16A762"/>
<path d="M21.3001 38.2422H12.9141V43.3531H21.3001V38.2422Z" fill="#16A762"/>
<path d="M51.0653 26.7883C50.7691 25.2382 50.1692 23.8041 49.3196 22.5501L52.327 19.5403L49.2552 16.4788L46.253 19.4836C45.0042 18.6288 43.5624 18.0365 42.0175 17.7379V13.4766H37.6713V17.7379C36.1239 18.0365 34.6949 18.6313 33.4333 19.4836L30.4363 16.4788L27.3646 19.5428L30.3668 22.5526C29.5197 23.8066 28.9224 25.2407 28.6263 26.7882H24.3701V31.1318H28.6262C28.9223 32.6741 29.5222 34.1083 30.3692 35.3673L27.3645 38.3721L30.4362 41.4309L33.4409 38.4287C34.6975 39.2834 36.1315 39.8782 37.679 40.1795V44.433H42.0251V40.177C43.5699 39.8808 45.0016 39.2809 46.2606 38.4313L49.2629 41.4335L52.3346 38.3721L49.3272 35.3673C50.1769 34.1134 50.7743 32.6767 51.0729 31.1293H55.3316V26.7883H51.0653ZM39.8496 33.6861C37.2362 33.6861 35.1146 31.5748 35.1146 28.9588C35.1146 26.3454 37.2361 24.2212 39.8496 24.2212C42.4656 24.2212 44.5769 26.3428 44.5769 28.9588C44.5769 31.5773 42.4603 33.6861 39.8496 33.6861Z" fill="#16A762"/>
</g>
<defs>
<clipPath id="clip0_1882_1919">
<rect width="60" height="60" fill="white" transform="translate(0.645508 0.0625)"/>
</clipPath>
</defs>
</svg>
