<svg width="61" height="61" viewBox="0 0 61 61" fill="none" xmlns="http://www.w3.org/2000/svg">
<g clip-path="url(#clip0_1882_1943)">
<path d="M30.5578 11.9883C32.9738 11.9883 34.9407 10.0214 34.9407 7.60547C34.9407 5.18953 32.9738 3.22266 30.5578 3.22266C28.1419 3.22266 26.175 5.18953 26.175 7.60547C26.175 10.0214 28.1419 11.9883 30.5578 11.9883ZM6.7416 11.9883C4.32566 11.9883 2.35879 10.0214 2.35879 7.60547C2.35879 5.18953 4.32566 3.22266 6.7416 3.22266C9.15754 3.22266 11.1244 5.18953 11.1244 7.60547C11.1244 10.0214 9.15754 11.9883 6.7416 11.9883ZM54.4557 11.9883C56.8716 11.9883 58.8385 10.0214 58.8385 7.60547C58.8385 5.18953 56.8716 3.22266 54.4557 3.22266C52.0397 3.22266 50.0728 5.18953 50.0728 7.60547C50.0728 10.0214 52.0397 11.9883 54.4557 11.9883ZM60.1219 33.1908C60.1219 33.933 59.0443 55.5436 59.0443 55.5436C59.0443 57.1838 57.7791 58.4489 56.1389 58.4489C54.4988 58.4489 53.2336 57.1838 53.2336 55.5436C53.2336 55.5436 51.214 33.0502 50.6567 24.6516L46.0299 30.2119C45.6329 30.6888 45.0469 30.96 44.4343 30.96C44.3548 30.96 44.2749 30.9555 44.195 30.9462C43.4984 30.8653 42.8897 30.4387 42.5766 29.8113L37.0301 18.7048V55.2804C37.0301 57.023 35.7401 58.4484 34.1335 58.4484C32.5268 58.4484 31.2368 57.023 31.2368 55.2804V35.2537C31.2368 34.9369 30.9652 34.6652 30.6483 34.6652C30.3314 34.6652 30.0598 34.9369 30.0598 35.2537V55.2806C30.0598 57.0232 28.7698 58.4487 27.1632 58.4487C25.5565 58.4487 24.2665 57.0232 24.2665 55.2806V18.5046L18.62 29.8116C18.3068 30.439 17.6982 30.8655 17.0018 30.9464C16.9219 30.9555 16.842 30.9602 16.7625 30.9602C16.1501 30.9602 15.5639 30.6891 15.1669 30.2121L10.5406 24.6516C9.98324 33.0502 7.96363 55.5434 7.96363 55.5434C7.96363 57.1835 6.69848 58.4487 5.05832 58.4487C3.41816 58.4487 2.15301 57.1835 2.15301 55.5434C2.15301 55.5434 1.07535 33.933 1.07535 33.1908C1.07535 33.1908 1.06738 16.4707 1.06738 16.4166C1.06738 14.5486 2.49496 13.2279 4.25605 13.2279C5.59012 13.2279 6.61691 13.6788 7.68941 14.7551C7.72012 14.786 16.3264 25.1128 16.3264 25.1128C16.3118 25.0955 20.1375 17.3562 20.8983 15.9717C21.9164 14.1195 23.3855 13.2272 25.2577 13.2143C25.2621 13.2143 25.2673 13.2131 25.2715 13.2131C25.2715 13.2131 35.8355 13.2159 35.9 13.2183C37.7911 13.2131 39.274 14.1061 40.2996 15.9727C40.321 16.0095 44.8714 25.1128 44.8714 25.1128C44.8714 25.1128 53.4762 14.786 53.509 14.7544C54.5574 13.6554 55.7473 13.2279 56.9414 13.2279C58.7025 13.2279 60.1301 14.6555 60.1301 16.4166C60.1299 17.0573 60.1219 33.1908 60.1219 33.1908Z" fill="#16A762"/>
</g>
<defs>
<clipPath id="clip0_1882_1943">
<rect width="60" height="60" fill="white" transform="translate(0.598633 0.835938)"/>
</clipPath>
</defs>
</svg>
