<svg width="75" height="14" viewBox="0 0 75 14" fill="none" xmlns="http://www.w3.org/2000/svg">
<path d="M0.18457 13.2529L0.993164 3.05762C1.0166 2.75879 1.02832 2.5127 1.02832 2.31934C1.02832 2.00879 0.955078 1.78027 0.808594 1.63379C0.667969 1.4873 0.416016 1.40527 0.0527344 1.3877L0.18457 1.0625H5.00098L4.9043 1.3877H4.66699C4.35059 1.3877 4.09277 1.49316 3.89355 1.7041C3.7002 1.90918 3.58301 2.2959 3.54199 2.86426L3.07617 8.91113L6.6709 3.99805L6.75879 2.86426C6.78223 2.62988 6.79395 2.44238 6.79395 2.30176C6.79395 2.01465 6.71484 1.79492 6.55664 1.64258C6.4043 1.49023 6.14941 1.40527 5.79199 1.3877L5.87988 1.0625H10.7314L10.6348 1.3877C10.207 1.3877 9.89062 1.49316 9.68555 1.7041C9.48047 1.90918 9.35449 2.2959 9.30762 2.86426L8.85059 8.91113L12.3135 4.14746C12.9053 3.33301 13.2715 2.7793 13.4121 2.48633C13.5117 2.28711 13.5615 2.11719 13.5615 1.97656C13.5615 1.8418 13.4941 1.72168 13.3594 1.61621C13.2305 1.50488 12.9785 1.42871 12.6035 1.3877L12.6914 1.0625H15.873L15.7939 1.3877C15.5068 1.44043 15.2695 1.54004 15.082 1.68652C14.8184 1.8916 14.4756 2.28418 14.0537 2.86426L6.48633 13.2529H5.96777L6.57422 5.21094L0.711914 13.2529H0.18457ZM15.3281 9.68457C15.2754 10.0654 15.249 10.3789 15.249 10.625C15.249 11.0645 15.375 11.416 15.627 11.6797C15.8848 11.9434 16.2275 12.0752 16.6553 12.0752C17.0654 12.0752 17.4756 11.9756 17.8857 11.7764C18.3018 11.5771 18.7822 11.2285 19.3271 10.7305L19.5908 10.9678C18.917 11.7822 18.2607 12.3623 17.6221 12.708C16.9834 13.0537 16.2773 13.2266 15.5039 13.2266C14.5254 13.2266 13.8486 12.9922 13.4736 12.5234C13.0986 12.0547 12.9111 11.5127 12.9111 10.8975C12.9111 9.93652 13.1895 8.97559 13.7461 8.01465C14.3086 7.05371 15.0703 6.2832 16.0312 5.70312C16.998 5.12305 17.9678 4.83301 18.9404 4.83301C19.4326 4.83301 19.8047 4.9502 20.0566 5.18457C20.3086 5.41895 20.4346 5.71484 20.4346 6.07227C20.4346 6.5 20.3115 6.91602 20.0654 7.32031C19.7256 7.87109 19.2979 8.31641 18.7822 8.65625C18.2666 8.99023 17.6895 9.24512 17.0508 9.4209C16.623 9.53809 16.0488 9.62598 15.3281 9.68457ZM15.4072 9.22754C15.9229 9.15137 16.3213 9.04883 16.6025 8.91992C16.8896 8.78516 17.168 8.57422 17.4375 8.28711C17.7129 7.99414 17.9502 7.62793 18.1494 7.18848C18.3486 6.74316 18.4482 6.32715 18.4482 5.94043C18.4482 5.77637 18.4014 5.64746 18.3076 5.55371C18.2197 5.45996 18.1055 5.41309 17.9648 5.41309C17.6836 5.41309 17.3672 5.60938 17.0156 6.00195C16.3711 6.7168 15.835 7.79199 15.4072 9.22754ZM26.209 0.790039L23.2998 10.6865C23.1299 11.2725 23.0449 11.6387 23.0449 11.7852C23.0449 11.8613 23.0684 11.9258 23.1152 11.9785C23.168 12.0312 23.2236 12.0576 23.2822 12.0576C23.3877 12.0576 23.4873 12.0166 23.5811 11.9346C23.8623 11.7061 24.1758 11.3193 24.5215 10.7744L24.8643 10.9326C24.3076 11.8232 23.7598 12.459 23.2207 12.8398C22.8516 13.0977 22.459 13.2266 22.043 13.2266C21.6562 13.2266 21.3486 13.124 21.1201 12.9189C20.8916 12.708 20.7773 12.4561 20.7773 12.1631C20.7773 11.9463 20.8477 11.5977 20.9883 11.1172L23.3613 3.01367C23.4902 2.56836 23.5547 2.27246 23.5547 2.12598C23.5547 1.98535 23.4932 1.87402 23.3701 1.79199C23.2061 1.6748 22.957 1.625 22.623 1.64258L22.7197 1.30859L25.6816 0.790039H26.209ZM31.2188 0.790039L28.3096 10.6865C28.1396 11.2725 28.0547 11.6387 28.0547 11.7852C28.0547 11.8613 28.0781 11.9258 28.125 11.9785C28.1777 12.0312 28.2334 12.0576 28.292 12.0576C28.3975 12.0576 28.4971 12.0166 28.5908 11.9346C28.8721 11.7061 29.1855 11.3193 29.5312 10.7744L29.874 10.9326C29.3174 11.8232 28.7695 12.459 28.2305 12.8398C27.8613 13.0977 27.4688 13.2266 27.0527 13.2266C26.666 13.2266 26.3584 13.124 26.1299 12.9189C25.9014 12.708 25.7871 12.4561 25.7871 12.1631C25.7871 11.9463 25.8574 11.5977 25.998 11.1172L28.3711 3.01367C28.5 2.56836 28.5645 2.27246 28.5645 2.12598C28.5645 1.98535 28.5029 1.87402 28.3799 1.79199C28.2158 1.6748 27.9668 1.625 27.6328 1.64258L27.7295 1.30859L30.6914 0.790039H31.2188ZM35.3408 4.83301L34.251 8.60352C34.9834 7.50195 35.5312 6.74902 35.8945 6.34473C36.4277 5.75879 36.8877 5.36035 37.2744 5.14941C37.6611 4.93848 38.0244 4.83301 38.3643 4.83301C38.6689 4.83301 38.9297 4.94727 39.1465 5.17578C39.3633 5.39844 39.4717 5.69141 39.4717 6.05469C39.4717 6.38281 39.4014 6.78125 39.2607 7.25L38.1357 11.0029C38.042 11.3311 37.9951 11.5449 37.9951 11.6445C37.9951 11.7031 38.0156 11.7559 38.0566 11.8027C38.1035 11.8496 38.1504 11.873 38.1973 11.873C38.2559 11.873 38.3174 11.8496 38.3818 11.8027C38.5869 11.6328 38.7949 11.3926 39.0059 11.082C39.0586 11 39.1436 10.877 39.2607 10.7129L39.5947 10.915C38.7334 12.3623 37.8281 13.0859 36.8789 13.0859C36.5156 13.0859 36.2314 12.9922 36.0264 12.8047C35.8213 12.6172 35.7188 12.3828 35.7188 12.1016C35.7188 11.8555 35.7891 11.4893 35.9297 11.0029L37.0283 7.25C37.1045 7.00391 37.1426 6.82227 37.1426 6.70508C37.1426 6.64062 37.1162 6.58496 37.0635 6.53809C37.0107 6.48535 36.9492 6.45898 36.8789 6.45898C36.6562 6.45898 36.3867 6.61133 36.0703 6.91602C35.2617 7.68945 34.4795 8.84082 33.7236 10.3701L33.0029 12.9805H30.7617L32.4053 7.33789C32.5635 6.78125 32.6426 6.38574 32.6426 6.15137C32.6426 6.05176 32.6191 5.96973 32.5723 5.90527C32.5254 5.83496 32.4492 5.78223 32.3438 5.74707C32.2383 5.70605 32.0391 5.68555 31.7461 5.68555L31.8428 5.35156L34.8047 4.83301H35.3408ZM43.3652 9.68457C43.3125 10.0654 43.2861 10.3789 43.2861 10.625C43.2861 11.0645 43.4121 11.416 43.6641 11.6797C43.9219 11.9434 44.2646 12.0752 44.6924 12.0752C45.1025 12.0752 45.5127 11.9756 45.9229 11.7764C46.3389 11.5771 46.8193 11.2285 47.3643 10.7305L47.6279 10.9678C46.9541 11.7822 46.2979 12.3623 45.6592 12.708C45.0205 13.0537 44.3145 13.2266 43.541 13.2266C42.5625 13.2266 41.8857 12.9922 41.5107 12.5234C41.1357 12.0547 40.9482 11.5127 40.9482 10.8975C40.9482 9.93652 41.2266 8.97559 41.7832 8.01465C42.3457 7.05371 43.1074 6.2832 44.0684 5.70312C45.0352 5.12305 46.0049 4.83301 46.9775 4.83301C47.4697 4.83301 47.8418 4.9502 48.0938 5.18457C48.3457 5.41895 48.4717 5.71484 48.4717 6.07227C48.4717 6.5 48.3486 6.91602 48.1025 7.32031C47.7627 7.87109 47.335 8.31641 46.8193 8.65625C46.3037 8.99023 45.7266 9.24512 45.0879 9.4209C44.6602 9.53809 44.0859 9.62598 43.3652 9.68457ZM43.4443 9.22754C43.96 9.15137 44.3584 9.04883 44.6396 8.91992C44.9268 8.78516 45.2051 8.57422 45.4746 8.28711C45.75 7.99414 45.9873 7.62793 46.1865 7.18848C46.3857 6.74316 46.4854 6.32715 46.4854 5.94043C46.4854 5.77637 46.4385 5.64746 46.3447 5.55371C46.2568 5.45996 46.1426 5.41309 46.002 5.41309C45.7207 5.41309 45.4043 5.60938 45.0527 6.00195C44.4082 6.7168 43.8721 7.79199 43.4443 9.22754ZM55.248 4.83301L54.8613 7.54883H54.5361C54.4893 6.8457 54.2725 6.29199 53.8857 5.8877C53.5049 5.4834 53.0947 5.28125 52.6553 5.28125C52.3857 5.28125 52.1631 5.36035 51.9873 5.51855C51.8115 5.67676 51.7236 5.86719 51.7236 6.08984C51.7236 6.27734 51.7617 6.45312 51.8379 6.61719C51.9141 6.78125 52.084 7.00391 52.3477 7.28516C53.2734 8.28125 53.8359 8.9668 54.0352 9.3418C54.2344 9.7168 54.334 10.1182 54.334 10.5459C54.334 11.0088 54.2168 11.4482 53.9824 11.8643C53.748 12.2744 53.3965 12.6055 52.9277 12.8574C52.4648 13.1035 51.9814 13.2266 51.4775 13.2266C51.1377 13.2266 50.7188 13.1592 50.2207 13.0244C49.8926 12.9307 49.6465 12.8838 49.4824 12.8838C49.3359 12.8838 49.2217 12.9072 49.1396 12.9541C49.0576 12.9951 48.9668 13.0859 48.8672 13.2266H48.542L48.9727 10.2998H49.2539C49.459 11.0088 49.6494 11.5156 49.8252 11.8203C50.0068 12.1191 50.2471 12.3594 50.5459 12.541C50.8447 12.7168 51.1318 12.8047 51.4072 12.8047C51.7295 12.8047 51.9961 12.7051 52.207 12.5059C52.418 12.3008 52.5234 12.0576 52.5234 11.7764C52.5234 11.501 52.4531 11.2344 52.3125 10.9766C52.1777 10.7188 51.8613 10.3174 51.3633 9.77246C50.6777 9.02832 50.2266 8.4541 50.0098 8.0498C49.8574 7.75684 49.7812 7.42285 49.7812 7.04785C49.7812 6.41504 50.0098 5.8877 50.4668 5.46582C50.9297 5.04395 51.5771 4.83301 52.4092 4.83301C52.7725 4.83301 53.2178 4.89746 53.7451 5.02637C54.0088 5.09082 54.2197 5.12305 54.3779 5.12305C54.6064 5.12305 54.791 5.02637 54.9316 4.83301H55.248ZM62.2617 4.83301L61.875 7.54883H61.5498C61.5029 6.8457 61.2861 6.29199 60.8994 5.8877C60.5186 5.4834 60.1084 5.28125 59.6689 5.28125C59.3994 5.28125 59.1768 5.36035 59.001 5.51855C58.8252 5.67676 58.7373 5.86719 58.7373 6.08984C58.7373 6.27734 58.7754 6.45312 58.8516 6.61719C58.9277 6.78125 59.0977 7.00391 59.3613 7.28516C60.2871 8.28125 60.8496 8.9668 61.0488 9.3418C61.248 9.7168 61.3477 10.1182 61.3477 10.5459C61.3477 11.0088 61.2305 11.4482 60.9961 11.8643C60.7617 12.2744 60.4102 12.6055 59.9414 12.8574C59.4785 13.1035 58.9951 13.2266 58.4912 13.2266C58.1514 13.2266 57.7324 13.1592 57.2344 13.0244C56.9062 12.9307 56.6602 12.8838 56.4961 12.8838C56.3496 12.8838 56.2354 12.9072 56.1533 12.9541C56.0713 12.9951 55.9805 13.0859 55.8809 13.2266H55.5557L55.9863 10.2998H56.2676C56.4727 11.0088 56.6631 11.5156 56.8389 11.8203C57.0205 12.1191 57.2607 12.3594 57.5596 12.541C57.8584 12.7168 58.1455 12.8047 58.4209 12.8047C58.7432 12.8047 59.0098 12.7051 59.2207 12.5059C59.4316 12.3008 59.5371 12.0576 59.5371 11.7764C59.5371 11.501 59.4668 11.2344 59.3262 10.9766C59.1914 10.7188 58.875 10.3174 58.377 9.77246C57.6914 9.02832 57.2402 8.4541 57.0234 8.0498C56.8711 7.75684 56.7949 7.42285 56.7949 7.04785C56.7949 6.41504 57.0234 5.8877 57.4805 5.46582C57.9434 5.04395 58.5908 4.83301 59.4229 4.83301C59.7861 4.83301 60.2314 4.89746 60.7588 5.02637C61.0225 5.09082 61.2334 5.12305 61.3916 5.12305C61.6201 5.12305 61.8047 5.02637 61.9453 4.83301H62.2617Z" fill="black"/>
<path d="M74.7949 1.3877L65.6807 12.3301H66.3926C67.8164 12.3301 68.959 12.1221 69.8203 11.7061C70.6816 11.2842 71.4785 10.5898 72.2109 9.62305H72.5801L71.332 12.9805H62.0859V12.6553L71.1914 1.74805H70.0752C68.6455 1.74805 67.585 1.92676 66.8936 2.28418C66.2021 2.63574 65.6104 3.23633 65.1182 4.08594H64.7666L65.7861 1.0625H74.7949V1.3877Z" fill="#67BC2A"/>
</svg>
